<svg width="34" height="38" viewBox="0 0 34 38" fill="none" xmlns="http://www.w3.org/2000/svg">
<path d="M27.5 20.1869C27.5 25.9561 20 30.9012 20 30.9012C20 30.9012 12.5 25.9561 12.5 20.1869C12.5 18.2196 13.2902 16.3329 14.6967 14.9418C16.1032 13.5508 18.0109 12.7693 20 12.7693C21.9891 12.7693 23.8968 13.5508 25.3033 14.9418C26.7098 16.3329 27.5 18.2196 27.5 20.1869Z" stroke="black" stroke-width="2" stroke-linecap="round" stroke-linejoin="round"/>
<path d="M20 22.6594C21.3807 22.6594 22.5 21.5524 22.5 20.1869C22.5 18.8213 21.3807 17.7144 20 17.7144C18.6193 17.7144 17.5 18.8213 17.5 20.1869C17.5 21.5524 18.6193 22.6594 20 22.6594Z" stroke="black" stroke-width="2" stroke-linecap="round" stroke-linejoin="round"/>
<path d="M29 7H11C8.79086 7 7 9.06638 7 11.6154V32.3846C7 34.9336 8.79086 37 11 37H29C31.2091 37 33 34.9336 33 32.3846V11.6154C33 9.06638 31.2091 7 29 7Z" stroke="black" stroke-width="2" stroke-linecap="round" stroke-linejoin="round"/>
<path d="M7 31H5C3.93913 31 2.92172 30.5137 2.17157 29.6482C1.42143 28.7826 1 27.6087 1 26.3846V5.61538C1 4.39131 1.42143 3.21737 2.17157 2.35181C2.92172 1.48626 3.93913 1 5 1H23C24.0609 1 25.0783 1.48626 25.8284 2.35181C26.5786 3.21737 27 4.39131 27 5.61538" stroke="black" stroke-width="2" stroke-linecap="round" stroke-linejoin="round"/>
</svg>
